<?xml version="1.0" encoding="UTF-8"?>
<svg id="Vrstva_2" data-name="Vrstva 2" xmlns="http://www.w3.org/2000/svg" viewBox="0 0 57.42 58.08">
  <defs>
    <style>
      .cls-1 {
        fill: #4c4c4c;
      }

      .cls-1, .cls-2 {
        stroke-width: 0px;
      }

      .cls-2 {
        fill: #009451;
      }
    </style>
  </defs>
  <g id="Vrstva_1-2" data-name="Vrstva 1">
    <g>
      <path class="cls-1" d="m1.75,33.02c-.68.16-1.26.32-1.75.49v10.21c.36.07.69.11.98.14.29.02.55.03.79.03.22,0,.48-.01.77-.03.29-.02.62-.07.98-.14v-7.77s.15-.06.32-.08c.17-.03.34-.04.49-.04.57,0,.97.16,1.21.48.24.32.35.85.35,1.58v5.84c.36.07.69.11.98.14.29.02.55.03.79.03.22,0,.48-.01.77-.03.29-.02.62-.07.98-.14v-6.07c0-.62-.06-1.18-.19-1.66.07-.03.2-.06.38-.1.19-.04.38-.06.57-.06.57,0,.98.16,1.23.48.25.32.37.85.37,1.58v5.84c.36.07.69.11.98.14.29.02.55.03.79.03.22,0,.48-.01.77-.03.29-.02.62-.07.98-.14v-6.22c0-1.03-.15-1.85-.45-2.47-.3-.62-.68-1.1-1.14-1.43-.46-.33-.98-.55-1.56-.66-.58-.1-1.13-.16-1.67-.16-.61,0-1.16.07-1.64.21-.49.14-.91.3-1.27.48-.47-.28-.98-.46-1.54-.55-.55-.09-1.12-.13-1.68-.13-1.04,0-1.9.08-2.58.24"/>
      <path class="cls-1" d="m23.8,37.08h-3.33c.06-.58.24-1.01.56-1.29.32-.28.7-.42,1.14-.42.51,0,.9.16,1.17.49.27.33.42.73.45,1.22m3.18.64c0-.72-.11-1.39-.32-2.01-.22-.62-.52-1.14-.93-1.58-.4-.44-.89-.78-1.47-1.03-.58-.25-1.23-.37-1.96-.37-.89,0-1.66.15-2.33.45-.67.3-1.22.7-1.66,1.22-.44.51-.78,1.12-1,1.81-.22.69-.33,1.43-.33,2.22s.11,1.55.32,2.22c.21.68.55,1.26,1,1.76.45.49,1.03.88,1.75,1.15.71.28,1.57.42,2.57.42,1.29,0,2.55-.23,3.78-.69-.01-.54-.09-1.06-.24-1.56-.15-.5-.32-.93-.51-1.29-.49.19-.98.34-1.48.44-.5.1-.95.15-1.35.15-.62,0-1.13-.12-1.51-.35-.38-.24-.65-.64-.8-1.21h6.32c.03-.19.06-.44.09-.74.03-.3.05-.63.05-1.01"/>
      <path class="cls-1" d="m32.51,36.64c-.19-.06-.37-.12-.52-.21-.15-.08-.23-.2-.23-.35,0-.36.33-.54.98-.54.44,0,.93.06,1.46.19s.98.26,1.35.42c.19-.39.37-.83.52-1.34.15-.51.24-.98.27-1.42-.61-.21-1.23-.37-1.85-.48-.62-.11-1.2-.17-1.73-.17-.67,0-1.27.08-1.82.25-.55.17-1.02.41-1.42.72-.4.31-.71.69-.94,1.13s-.33.94-.33,1.48c0,.86.24,1.54.73,2.04s1.09.85,1.83,1.06l1.41.39c.24.07.44.15.62.24.18.09.27.23.27.41,0,.14-.05.25-.14.33-.09.08-.2.15-.34.2-.14.05-.3.08-.48.09-.18.01-.35.02-.52.02-.49,0-.97-.05-1.46-.16s-.95-.26-1.39-.47c-.44.97-.7,1.93-.77,2.87.64.24,1.24.4,1.81.5.57.1,1.18.15,1.85.15.8,0,1.51-.1,2.13-.29.62-.19,1.14-.46,1.56-.79.42-.33.74-.73.96-1.19.21-.46.32-.95.32-1.48s-.07-.95-.21-1.31c-.14-.36-.33-.67-.57-.91-.24-.25-.53-.45-.87-.61-.34-.16-.72-.29-1.13-.41l-1.35-.35Z"/>
      <path class="cls-1" d="m40.64,43.71c.35.06.67.1.96.12.29.03.55.04.79.04s.5-.01.79-.04c.29-.03.62-.07.98-.12v-7.8h3.08c.07-.28.11-.54.14-.78.02-.24.03-.47.03-.7s-.01-.45-.03-.69c-.02-.24-.07-.49-.14-.77h-9.67c-.07.28-.11.53-.14.77-.02.24-.03.46-.03.69s.01.45.03.7c.02.24.07.5.14.78h3.08v7.8Z"/>
      <path class="cls-1" d="m54.2,41.26c-.11.03-.28.06-.52.08-.24.03-.42.04-.54.04-.18,0-.38-.01-.59-.04-.22-.03-.42-.08-.6-.17-.19-.08-.34-.2-.47-.36-.12-.16-.19-.38-.19-.66,0-.37.17-.67.5-.87.33-.21.74-.31,1.23-.31h1.18v2.29Zm3.22,2.02v-6.09c0-.78-.11-1.44-.33-2.01-.22-.56-.54-1.02-.95-1.38-.41-.36-.9-.63-1.49-.8-.58-.17-1.23-.26-1.95-.26-.53,0-1.12.06-1.78.17-.66.11-1.32.28-1.99.5,0,.28.01.52.03.74.02.21.06.42.1.62.05.2.12.4.21.59.09.19.2.41.32.64.47-.17.93-.29,1.37-.36.44-.08.83-.11,1.16-.11.25,0,.49.02.73.05s.45.1.64.19c.19.09.35.22.48.38.12.17.19.37.21.62h-1.27c-.53,0-1.07.05-1.62.16-.55.1-1.06.29-1.52.55-.46.26-.83.62-1.12,1.06-.29.44-.44,1-.44,1.68s.12,1.28.36,1.76c.24.48.58.86,1.01,1.15.43.29.95.5,1.55.63.6.13,1.26.2,1.99.2.83,0,1.62-.08,2.37-.23.75-.15,1.39-.3,1.91-.46"/>
      <path class="cls-1" d="m53.77,50.14c.27.32.42.71.45,1.19h-3.35c.06-.57.24-.99.56-1.26.32-.27.7-.41,1.15-.41.52,0,.91.16,1.18.48m3.5,3.53c.03-.19.06-.43.09-.72.03-.29.05-.62.05-.99,0-.7-.11-1.36-.32-1.96-.22-.6-.53-1.12-.93-1.54s-.9-.76-1.47-1.01c-.58-.24-1.24-.37-1.98-.37-.89,0-1.67.15-2.34.44-.67.29-1.23.69-1.67,1.19-.45.5-.78,1.09-1,1.77-.22.68-.33,1.4-.33,2.18s.11,1.51.32,2.17c.22.66.55,1.24,1,1.72.45.48,1.04.86,1.76,1.13.72.27,1.58.41,2.58.41,1.3,0,2.57-.22,3.81-.67-.01-.53-.09-1.04-.24-1.52-.15-.49-.32-.91-.51-1.26-.49.19-.98.33-1.49.43-.5.09-.96.14-1.36.14-.63,0-1.13-.11-1.52-.35-.38-.23-.65-.62-.81-1.18h6.36Zm-18.78,1.19c.24.67.59,1.25,1.06,1.73.47.48,1.04.85,1.73,1.11.68.26,1.47.39,2.36.39.53,0,1.06-.03,1.59-.1.53-.07,1.12-.22,1.76-.47,0-.58-.07-1.1-.21-1.56-.14-.45-.33-.86-.56-1.23-.4.15-.76.26-1.06.33-.3.07-.65.1-1.06.1-.32,0-.62-.04-.91-.12-.29-.08-.54-.22-.75-.41-.22-.19-.39-.45-.52-.78-.13-.33-.2-.75-.2-1.25,0-.95.22-1.62.66-2,.44-.39.99-.58,1.66-.58.18,0,.35,0,.51.01.16,0,.32.02.49.05.17.03.35.06.53.11.19.05.4.11.64.19.24-.43.41-.88.52-1.33.11-.45.15-.91.13-1.37-.33-.12-.64-.22-.91-.3-.27-.08-.54-.14-.8-.18-.26-.04-.52-.07-.78-.08-.27-.01-.54-.02-.84-.02-.86,0-1.63.14-2.3.41-.67.27-1.23.65-1.69,1.13-.46.48-.81,1.06-1.05,1.74-.24.68-.36,1.42-.36,2.24s.12,1.6.36,2.27m-7.78-5.44c.14-.01.31-.02.51-.03.2,0,.38-.01.53-.01.5,0,.85.1,1.04.29.19.2.28.41.28.64,0,.24-.09.48-.27.7-.18.22-.54.34-1.07.34h-1.03v-1.93Zm.96,4.07c.36,0,.66.03.88.09.22.06.4.14.52.23.13.09.21.21.26.34.05.13.07.26.07.4,0,.34-.13.6-.38.79-.25.19-.67.28-1.26.28-.31,0-.55,0-.73-.02-.18-.01-.29-.02-.33-.02v-2.09h.96Zm-4.46,4.33c.82.11,1.63.18,2.42.21.79.03,1.43.05,1.91.05,1.85,0,3.26-.24,4.2-.72.95-.48,1.42-1.34,1.42-2.59,0-.69-.19-1.23-.56-1.61-.38-.38-.86-.67-1.44-.87.42-.26.75-.57.99-.92.24-.36.37-.8.37-1.31,0-1.02-.43-1.77-1.3-2.25-.86-.48-2.17-.72-3.91-.72-.27,0-.58,0-.93.02-.36.01-.72.03-1.1.06-.38.03-.75.06-1.11.09-.36.03-.68.07-.96.11v10.45Zm-5.53-3.21c-.3.46-.76.69-1.37.69s-1.07-.23-1.36-.69c-.29-.46-.44-1.12-.44-1.97s.15-1.53.44-1.99c.29-.46.75-.69,1.36-.69s1.07.23,1.37.69c.3.46.45,1.12.45,1.99s-.15,1.51-.45,1.97m-6.4.25c.23.67.57,1.25,1.03,1.73.45.48,1.01.85,1.68,1.11.67.26,1.44.39,2.32.39s1.67-.13,2.34-.39c.67-.26,1.23-.63,1.68-1.11.45-.48.8-1.06,1.03-1.73.23-.67.35-1.41.35-2.23s-.11-1.58-.35-2.27c-.23-.68-.57-1.27-1.03-1.76-.45-.49-1.01-.86-1.68-1.13-.67-.26-1.45-.4-2.34-.4s-1.65.13-2.32.4c-.67.26-1.23.64-1.68,1.13-.45.49-.8,1.07-1.03,1.76-.23.68-.35,1.44-.35,2.27s.11,1.56.35,2.23"/>
    </g>
    <g>
      <path class="cls-2" d="m44.87,8.28c-2.58,0-3.87,2.17-3.87,6.5,0,2.16.31,3.78.94,4.84.63,1.06,1.59,1.59,2.91,1.59,2.54,0,3.81-2.15,3.81-6.44s-1.26-6.5-3.78-6.5Z"/>
      <path class="cls-2" d="m11.86,8.75c-.3-.25-.65-.42-1.04-.52-.4-.1-.81-.15-1.25-.15h-.42c-.16,0-.32.01-.48.03v6.02c.1.04.27.07.51.09.24.02.49.03.74.03.85,0,1.55-.25,2.09-.74.54-.5.8-1.25.8-2.26,0-.6-.08-1.1-.25-1.5-.17-.41-.4-.73-.7-.98Z"/>
      <path class="cls-2" d="m0,0v29.23h17.68c1.95,1.77,3.87,3.48,4.01,3.48.29.01.53.02.71.02s.42,0,.71-.02c.13,0,1.94-1.66,3.89-3.48h30.43V0H0Zm17.54,14.75c-.43.93-.99,1.68-1.7,2.23-.71.56-1.51.95-2.41,1.19-.9.24-1.83.36-2.79.36-.38,0-.76-.01-1.15-.04-.39-.03-.66-.06-.82-.1v6.94c-.52.1-.98.17-1.4.21-.42.04-.8.06-1.16.06-.7,0-1.56-.09-2.59-.27V4.05c.46-.06,1.16-.14,2.1-.25.94-.11,2.13-.16,3.56-.16,1.05,0,2.12.1,3.19.3,1.07.2,2.04.57,2.9,1.12.86.55,1.56,1.32,2.1,2.31.54.99.8,2.28.8,3.87,0,1.41-.21,2.58-.64,3.52Zm16.92,10.76c-.57.04-1.08.06-1.53.06-.4,0-.86-.02-1.39-.06-.53-.04-.99-.1-1.39-.18l-4.23-9.74.27-.15c.24-.12.5-.32.79-.6.29-.28.56-.61.8-1,.25-.39.46-.82.63-1.3.17-.48.25-.97.25-1.49,0-.99-.28-1.72-.83-2.17-.56-.46-1.24-.69-2.06-.69-.2,0-.37.01-.51.03-.14.02-.23.04-.27.06v17.04c-1.05.18-1.92.27-2.59.27-.74,0-1.62-.09-2.65-.27V4.05c.97-.1,1.87-.19,2.7-.28.82-.09,1.69-.13,2.61-.13,1.09,0,2.18.1,3.28.31,1.09.21,2.07.57,2.92,1.09.85.52,1.55,1.22,2.09,2.12.54.89.8,2.03.8,3.4,0,.74-.08,1.4-.25,1.98-.17.59-.39,1.11-.66,1.56-.27.46-.57.85-.89,1.19-.33.34-.65.63-.97.86l4.65,9.18c-.48.08-1,.14-1.56.18Zm19.19-6.33c-.37,1.34-.93,2.5-1.7,3.49-.76.98-1.73,1.75-2.91,2.29-1.17.55-2.57.82-4.2.82s-3.03-.27-4.22-.82c-1.18-.55-2.16-1.31-2.92-2.29-.77-.98-1.33-2.14-1.7-3.49-.37-1.34-.55-2.81-.55-4.39s.18-3.06.55-4.42c.37-1.36.93-2.54,1.7-3.53.76-.99,1.74-1.77,2.92-2.34,1.18-.57,2.59-.85,4.22-.85s3.03.28,4.2.85c1.17.57,2.14,1.35,2.91,2.34.76.99,1.33,2.17,1.7,3.53.37,1.36.55,2.84.55,4.42s-.18,3.05-.55,4.39Z"/>
    </g>
    <path class="cls-2" d="m4.34,55.5c-.22-.03-.42-.08-.61-.16-.19-.08-.35-.2-.47-.36-.13-.16-.19-.37-.19-.64,0-.37.17-.65.5-.85.33-.2.75-.31,1.23-.31h1.19v2.24c-.11.03-.29.05-.52.08-.24.03-.42.04-.54.04-.18,0-.38-.01-.6-.04m-3.97.62c.24.47.58.84,1.01,1.13.43.28.95.49,1.56.62.61.13,1.27.19,2,.19.84,0,1.63-.07,2.38-.22.75-.15,1.39-.3,1.92-.45v-5.96c0-.76-.11-1.41-.33-1.96-.22-.55-.54-1-.95-1.35-.41-.35-.91-.61-1.5-.78-.59-.17-1.24-.25-1.97-.25-.53,0-1.13.05-1.79.16-.66.11-1.33.27-2,.49,0,.27.01.51.03.72.02.21.06.41.1.61.05.2.12.39.21.58.09.19.2.4.32.63.47-.16.93-.28,1.38-.36.45-.07.84-.11,1.17-.11.25,0,.49.02.73.05.24.03.45.09.65.18.2.09.36.21.48.38.13.16.2.37.21.61h-1.28c-.53,0-1.07.05-1.63.15-.56.1-1.07.28-1.53.54-.46.26-.84.6-1.13,1.04C.15,53.19,0,53.74,0,54.4s.12,1.25.37,1.72"/>
  </g>
</svg>